<?xml version="1.0" encoding="UTF-8"?>
<svg id="Layer_2" data-name="Layer 2" xmlns="http://www.w3.org/2000/svg" viewBox="0 0 155 128.66">
  <defs>
    <style>
      .cls-1 {
        fill: blue;
      }

      .cls-2 {
        fill: #fff;
      }
    </style>
  </defs>
  <g id="Layer_1-2" data-name="Layer 1">
    <g>
      <g>
        <g>
          <path class="cls-1" d="m42.14,23.99h17.15c2.83,0,5.8,0,8.77.8,5,1.38,12.03,5.87,12.03,16.24,0,6.81-3.19,14.14-12.32,16.17-2.83.65-5.51.65-8.63.65h-7.47v17.35h-9.54V23.99Zm9.54,8.19v17.76h6.89c2.03,0,3.77,0,5.44-.44,5.94-1.45,6.31-6.89,6.31-8.7,0-3.77-1.67-5.73-2.54-6.52-2.39-2.03-5.73-2.1-8.84-2.1h-7.25Zm34.94-8.19h9.54s0,42.45,0,42.45h20.69v8.75h-30.24V23.99ZM0,51.31l72.62,77.35,61.99-53.47-9.51-.04v-36.68L63.89,0,0,51.31Z"/>
          <polygon class="cls-1" points="155.21 57.39 134.61 44.44 134.61 75.19 155.21 57.39"/>
        </g>
        <rect class="cls-2" x="125.1" y="23.97" width="9.51" height="9.51"/>
      </g>
      <g>
        <polygon class="cls-2" points="134.61 44.44 125.1 38.47 125.1 75.19 134.61 75.19 134.61 44.44"/>
        <path class="cls-2" d="m42.14,23.99h17.15c2.83,0,5.8,0,8.77.8,5,1.38,12.03,5.87,12.03,16.24,0,6.81-3.19,14.14-12.32,16.17-2.83.65-5.51.65-8.63.65h-7.47v17.35h-9.54V23.99Zm9.54,8.19v17.76h6.89c2.03,0,3.77,0,5.44-.44,5.94-1.45,6.31-6.89,6.31-8.7,0-3.77-1.67-5.73-2.54-6.52-2.39-2.03-5.73-2.1-8.84-2.1h-7.25Zm34.94-8.19h9.54s0,42.45,0,42.45h20.69v8.75h-30.24V23.99Z"/>
      </g>
    </g>
    <g>
      <polygon class="cls-2" points="134.64 44.68 125.11 38.69 125.11 75.49 134.64 75.49 134.64 44.68"/>
      <path class="cls-2" d="m41.99,24.18h17.19c2.83,0,5.81,0,8.79.8,5.01,1.38,12.06,5.88,12.06,16.27,0,6.83-3.2,14.16-12.35,16.2-2.83.65-5.52.65-8.64.65h-7.48v17.39h-9.56V24.18Zm9.56,8.21v17.8h6.9c2.03,0,3.78,0,5.45-.44,5.96-1.45,6.32-6.9,6.32-8.72,0-3.78-1.67-5.74-2.54-6.54-2.4-2.03-5.74-2.11-8.86-2.11h-7.26Zm35-8.21h9.56s0,42.53,0,42.53h20.73v8.77h-30.3V24.18Z"/>
    </g>
    <g>
      <g>
        <path class="cls-2" d="m181.89,50.69v2.72h-8.72v-13.73h3.2v11.01h5.52Z"/>
        <path class="cls-2" d="m189.84,53.41c-.12-.52-.16-1.06-.14-1.58-.84,1.2-1.72,1.78-3.24,1.78-1.8,0-3.2-.96-3.2-2.88,0-1.5.94-2.52,2.28-3.02,1.16-.44,2.78-.52,4.02-.64v-.24c0-.44.04-.96-.26-1.34-.26-.34-.76-.48-1.2-.48-.94,0-1.76.48-1.76,1.48l-2.78-.26c.3-2.46,2.7-3.18,4.84-3.18,1.04,0,2.4.24,3.22.92,1.04.84.94,1.96.94,3.18v4.74c0,.52.04,1.02.2,1.52h-2.92Zm-.28-4.86c-1.12.12-3.18.38-3.18,1.86,0,.8.48,1.34,1.3,1.34.6,0,1.14-.32,1.48-.84.42-.64.4-1.24.4-1.96v-.4Z"/>
        <path class="cls-2" d="m194.78,43.24h2.78v1.72h.04c.6-1.3,1.44-1.92,2.92-1.92.96,0,1.9.3,2.5,1.12.56.76.56,2.04.56,2.96v6.28h-2.94v-5.46c0-1.04.14-2.56-1.34-2.56-.52,0-1,.3-1.24.76-.3.58-.34,1.16-.34,1.8v5.46h-2.94v-10.17Z"/>
        <path class="cls-2" d="m210.37,43.04c.92,0,1.82.14,2.7.44.2-1.54.78-1.98,2.3-1.98.28,0,.54.02.82.08v1.9c-.26-.04-.52-.1-.78-.1-.56,0-1.1.26-1.18.88.56.62.8,1.12.8,1.98,0,2.4-2.58,3.1-4.52,3.1-.56,0-1.18-.06-1.7-.14-.28.16-.5.4-.5.74,0,.42.2.66.58.78.52.14,1.6.18,2.18.2l1.28.06c1.78.1,3.78.48,3.78,2.7,0,1.36-.98,2.28-2.14,2.76-1.1.46-2.54.54-3.74.54-1.62,0-5.24-.06-5.24-2.36,0-1.04.84-1.64,1.76-1.84-.78-.38-1.3-.92-1.3-1.82,0-1.26,1.02-1.84,2.04-2.26-1.1-.42-1.8-1.26-1.8-2.48,0-2.46,2.68-3.18,4.66-3.18Zm1.88,10.47c-.7-.06-2.64-.06-3.98-.16-.36.14-.64.42-.64.82,0,.48.32.7.74.82.64.18,1.56.2,2.2.2.72,0,2.76.06,2.76-.98,0-.54-.66-.66-1.08-.7Zm-3.54-7.32c0,1,.64,1.54,1.62,1.54s1.76-.52,1.76-1.56-.84-1.5-1.76-1.5-1.62.56-1.62,1.52Z"/>
        <path class="cls-2" d="m223.53,53.41v-1.74h-.04c-.48,1.28-1.52,1.94-2.9,1.94-1.02,0-1.9-.22-2.48-1.14-.56-.88-.5-1.84-.5-2.82v-6.4h2.94v6.4c0,.82.08,1.6,1.12,1.6.66,0,1.22-.38,1.48-.98.2-.46.16-1.04.16-1.56v-5.46h2.94v10.17h-2.72Z"/>
        <path class="cls-2" d="m234.42,53.41c-.12-.52-.16-1.06-.14-1.58-.84,1.2-1.72,1.78-3.24,1.78-1.8,0-3.2-.96-3.2-2.88,0-1.5.94-2.52,2.28-3.02,1.16-.44,2.78-.52,4.02-.64v-.24c0-.44.04-.96-.26-1.34-.26-.34-.76-.48-1.2-.48-.94,0-1.76.48-1.76,1.48l-2.78-.26c.3-2.46,2.7-3.18,4.84-3.18,1.04,0,2.4.24,3.22.92,1.04.84.94,1.96.94,3.18v4.74c0,.52.04,1.02.2,1.52h-2.92Zm-.28-4.86c-1.12.12-3.18.38-3.18,1.86,0,.8.48,1.34,1.3,1.34.6,0,1.14-.32,1.48-.84.42-.64.4-1.24.4-1.96v-.4Z"/>
        <path class="cls-2" d="m244.24,43.04c.92,0,1.82.14,2.7.44.2-1.54.78-1.98,2.3-1.98.28,0,.54.02.82.08v1.9c-.26-.04-.52-.1-.78-.1-.56,0-1.1.26-1.18.88.56.62.8,1.12.8,1.98,0,2.4-2.58,3.1-4.52,3.1-.56,0-1.18-.06-1.7-.14-.28.16-.5.4-.5.74,0,.42.2.66.58.78.52.14,1.6.18,2.18.2l1.28.06c1.78.1,3.78.48,3.78,2.7,0,1.36-.98,2.28-2.14,2.76-1.1.46-2.54.54-3.74.54-1.62,0-5.24-.06-5.24-2.36,0-1.04.84-1.64,1.76-1.84-.78-.38-1.3-.92-1.3-1.82,0-1.26,1.02-1.84,2.04-2.26-1.1-.42-1.8-1.26-1.8-2.48,0-2.46,2.68-3.18,4.66-3.18Zm1.88,10.47c-.7-.06-2.64-.06-3.98-.16-.36.14-.64.42-.64.82,0,.48.32.7.74.82.64.18,1.56.2,2.2.2.72,0,2.76.06,2.76-.98,0-.54-.66-.66-1.08-.7Zm-3.54-7.32c0,1,.64,1.54,1.62,1.54s1.76-.52,1.76-1.56-.84-1.5-1.76-1.5-1.62.56-1.62,1.52Z"/>
        <path class="cls-2" d="m253.56,48.83l-.02.5c0,1.2.68,2.18,1.96,2.18.9,0,1.8-.66,1.8-1.6l2.72.2c0,.5-1.18,3.5-4.62,3.5-3.04,0-5.02-2.12-5.02-5.14s1.78-5.42,4.94-5.42c1.42,0,2.88.64,3.72,1.8.84,1.16,1.06,2.6,1.04,3.98h-6.52Zm3.58-1.74c-.06-1.1-.42-2.12-1.7-2.12s-1.8.96-1.9,2.12h3.6Z"/>
        <path class="cls-2" d="m176.51,74.9h-3.2v-13.73h3.2v13.73Z"/>
        <path class="cls-2" d="m179.33,64.73h2.78v1.72h.04c.6-1.3,1.44-1.92,2.92-1.92.96,0,1.9.3,2.5,1.12.56.76.56,2.04.56,2.96v6.28h-2.94v-5.46c0-1.04.14-2.56-1.34-2.56-.52,0-1,.3-1.24.76-.3.58-.34,1.16-.34,1.8v5.46h-2.94v-10.17Z"/>
        <path class="cls-2" d="m196.34,67.05h-2.18v4.04c0,1.34.1,1.64,1.36,1.64.26,0,.64-.04.98-.08v2.22c-.58.14-1.3.22-1.84.22-.84,0-1.96-.12-2.62-.66-.82-.68-.82-1.9-.82-2.9v-4.48h-1.66v-2.34h1.78l.26-2.98,2.56-.2v3.18h2.18v2.34Z"/>
        <path class="cls-2" d="m201.06,70.32l-.02.5c0,1.2.68,2.18,1.96,2.18.9,0,1.8-.66,1.8-1.6l2.72.2c0,.5-1.18,3.5-4.62,3.5-3.04,0-5.02-2.12-5.02-5.14s1.78-5.42,4.94-5.42c1.42,0,2.88.64,3.72,1.8.84,1.16,1.06,2.6,1.04,3.98h-6.52Zm3.58-1.74c-.06-1.1-.42-2.12-1.7-2.12s-1.8.96-1.9,2.12h3.6Z"/>
        <path class="cls-2" d="m209.6,61.17h2.94v13.73h-2.94v-13.73Z"/>
        <path class="cls-2" d="m215.13,61.17h2.94v13.73h-2.94v-13.73Z"/>
        <path class="cls-2" d="m223.59,63.81h-2.94v-2.84h2.94v2.84Zm0,11.09h-2.94v-10.17h2.94v10.17Z"/>
        <path class="cls-2" d="m230.53,64.53c.92,0,1.82.14,2.7.44.2-1.54.78-1.98,2.3-1.98.28,0,.54.02.82.08v1.9c-.26-.04-.52-.1-.78-.1-.56,0-1.1.26-1.18.88.56.62.8,1.12.8,1.98,0,2.4-2.58,3.1-4.52,3.1-.56,0-1.18-.06-1.7-.14-.28.16-.5.4-.5.74,0,.42.2.66.58.78.52.14,1.6.18,2.18.2l1.28.06c1.78.1,3.78.48,3.78,2.7,0,1.36-.98,2.28-2.14,2.76-1.1.46-2.54.54-3.74.54-1.62,0-5.24-.06-5.24-2.36,0-1.04.84-1.64,1.76-1.84-.78-.38-1.3-.92-1.3-1.82,0-1.26,1.02-1.84,2.04-2.26-1.1-.42-1.8-1.26-1.8-2.48,0-2.46,2.68-3.18,4.66-3.18Zm1.88,10.47c-.7-.06-2.64-.06-3.98-.16-.36.14-.64.42-.64.82,0,.48.32.7.74.82.64.18,1.56.2,2.2.2.72,0,2.76.06,2.76-.98,0-.54-.66-.66-1.08-.7Zm-3.54-7.32c0,1,.64,1.54,1.62,1.54s1.76-.52,1.76-1.56-.84-1.5-1.76-1.5-1.62.56-1.62,1.52Z"/>
        <path class="cls-2" d="m240.28,70.32l-.02.5c0,1.2.68,2.18,1.96,2.18.9,0,1.8-.66,1.8-1.6l2.72.2c0,.5-1.18,3.5-4.62,3.5-3.04,0-5.02-2.12-5.02-5.14s1.78-5.42,4.94-5.42c1.42,0,2.88.64,3.72,1.8.84,1.16,1.06,2.6,1.04,3.98h-6.52Zm3.58-1.74c-.06-1.1-.42-2.12-1.7-2.12s-1.8.96-1.9,2.12h3.6Z"/>
        <path class="cls-2" d="m248.72,64.73h2.78v1.72h.04c.6-1.3,1.44-1.92,2.92-1.92.96,0,1.9.3,2.5,1.12.56.76.56,2.04.56,2.96v6.28h-2.94v-5.46c0-1.04.14-2.56-1.34-2.56-.52,0-1,.3-1.24.76-.3.58-.34,1.16-.34,1.8v5.46h-2.94v-10.17Z"/>
        <path class="cls-2" d="m266.13,68.59c0-.92-.48-1.82-1.54-1.82-1.62,0-1.82,1.6-1.82,2.9s.02,3,1.7,3c1.04,0,1.56-.82,1.66-1.76l2.8.16c-.24,2.52-2.14,4.02-4.62,4.02-3.08,0-4.9-2.18-4.9-5.18s1.88-5.38,5.08-5.38c2.36,0,4.24,1.52,4.44,3.9l-2.8.16Z"/>
        <path class="cls-2" d="m273.23,70.32l-.02.5c0,1.2.68,2.18,1.96,2.18.9,0,1.8-.66,1.8-1.6l2.72.2c0,.5-1.18,3.5-4.62,3.5-3.04,0-5.02-2.12-5.02-5.14s1.78-5.42,4.94-5.42c1.42,0,2.88.64,3.72,1.8.84,1.16,1.06,2.6,1.04,3.98h-6.52Zm3.58-1.74c-.06-1.1-.42-2.12-1.7-2.12s-1.8.96-1.9,2.12h3.6Z"/>
      </g>
      <g>
        <path class="cls-2" d="m173.11,34.05v-10.86h3.64c.93,0,1.87.11,2.61.73.71.6,1.11,1.61,1.11,2.53,0,.84-.35,1.71-.95,2.3-.73.71-1.63.89-2.61.89h-2.44v4.42h-1.36Zm3.66-5.54c.65,0,1.22-.06,1.73-.55.4-.4.6-.95.6-1.5,0-.65-.24-1.3-.76-1.71-.46-.36-.92-.41-1.47-.41h-2.39v4.18h2.3Z"/>
        <path class="cls-2" d="m189.21,34.05l-2.01-4.7h-3.01v4.7h-1.36v-10.86h4.07c.89,0,1.74.11,2.47.67.73.55,1.16,1.46,1.16,2.38,0,1.28-.76,2.44-2.03,2.79l2.14,5.04h-1.43Zm-2.47-5.81c.73,0,1.33-.05,1.87-.6.38-.38.55-.9.55-1.43,0-.63-.24-1.16-.76-1.5-.48-.33-.93-.35-1.5-.35h-2.71v3.88h2.55Z"/>
        <path class="cls-2" d="m193.64,34.05v-10.86h1.36v10.86h-1.36Z"/>
        <path class="cls-2" d="m207.16,34.05h-1.33l-5.53-9.47v9.47h-1.14v-10.86h1.71l5.15,8.85v-8.85h1.14v10.86Z"/>
        <path class="cls-2" d="m218.38,30.66c-.51,2.06-1.73,3.55-4.02,3.55-3.13,0-4.42-3.02-4.42-5.7s1.38-5.48,4.53-5.48c2.19,0,3.47,1.47,3.91,3.47l-1.28.24c-.38-1.38-1.06-2.56-2.68-2.56-2.36,0-2.99,2.56-2.99,4.45,0,.85.14,1.92.51,2.71.44.97,1.28,1.74,2.42,1.74,1.66,0,2.44-1.25,2.79-2.68l1.23.27Z"/>
        <path class="cls-2" d="m228.37,34.05h-7.03v-10.86h6.87v1.17h-5.51v3.45h4.37v1.09h-4.37v3.97h5.67v1.17Z"/>
        <path class="cls-2" d="m234.73,34.05h-1.36v-9.67h-3.09v-1.19h7.54v1.19h-3.09v9.67Z"/>
        <path class="cls-2" d="m239.34,28.69c0-2.71,1.33-5.67,4.46-5.67s4.46,2.79,4.46,5.46-1.36,5.72-4.45,5.72-4.48-2.79-4.48-5.51Zm7.5-.13c0-.97-.16-2.09-.65-2.96-.49-.85-1.33-1.46-2.34-1.46-2.42,0-3.09,2.61-3.09,4.56s.76,4.39,3.06,4.39,3.02-2.66,3.02-4.53Z"/>
        <path class="cls-2" d="m258.84,34.05h-1.33l-5.53-9.47v9.47h-1.14v-10.86h1.71l5.15,8.85v-8.85h1.14v10.86Z"/>
      </g>
      <polygon class="cls-2" points="279.01 47.29 279.01 48.66 272.61 48.66 272.61 55.06 271.24 55.06 271.24 48.66 264.84 48.66 264.84 47.29 271.24 47.29 271.24 40.89 272.61 40.89 272.61 47.29 279.01 47.29"/>
    </g>
  </g>
</svg>